<?xml version="1.0" encoding="UTF-8"?>
<svg width="56px" height="52px" viewBox="0 0 56 52" version="1.1" xmlns="http://www.w3.org/2000/svg" xmlns:xlink="http://www.w3.org/1999/xlink">
    <title>Adctv_logo 1</title>
    <defs>
        <path d="M27.2047267,0.0696024395 C24.7884499,0.562651383 17.9008165,8.21447151 12.4825365,18.1765754 C7.0642565,28.1386793 -0.882061658,45.0653177 0.0876849544,46.877737 C1.05743157,48.6901563 17.0582281,50.5513749 27.3707298,50.5513749 C37.6832315,50.5513749 53.5976854,46.6468126 55.4645323,45.6637982 C57.3313791,44.6807839 48.9913409,25.2471724 45.9630789,20.4565215 C40.6614012,12.0693716 29.6210035,-0.423446504 27.2047267,0.0696024395 Z" id="path-1"></path>
    </defs>
    <g id="Adctv_logo-1" stroke="none" stroke-width="1" fill="none" fill-rule="evenodd">
        <g id="Path-4-Copy" transform="translate(0.000737, 0.042232)">
            <mask id="mask-2" fill="white">
                <use xlink:href="#path-1"></use>
            </mask>
            <use id="Mask" fill="#D4181D" xlink:href="#path-1"></use>
            <path d="M-3.13436699,42.5767845 C-4.09715578,41.2166221 2.34245552,23.2411109 7.67029209,14.5378287 C12.9981287,5.83454651 25.7400744,-7.21138692 27.2967081,-7.13427511 C28.8533417,-7.05716329 42.3157092,2.21702475 50.0795844,17.384117 C55.2555012,27.4955119 58.5019893,39.0292408 59.8190488,51.9853039 C52.281078,53.3329273 46.5384939,54.2449262 42.5912966,54.7213006 C26.1393564,56.7068317 11.8518734,53.4704151 6.92681847,52.3487532 C24.0474169,54.2482531 35.7066931,54.6798019 41.9046471,53.6433995 C49.646966,52.3487532 53.448853,50.9500122 57.1808269,49.9455424 C54.4883828,36.9071094 51.1499777,26.5884904 47.1656115,18.9896855 C43.2226842,11.4699111 36.8232105,4.15191523 27.9671902,-2.96430217 L27.967255,-2.96438287 C27.8076522,-3.09263103 27.5773392,-3.08118747 27.4312357,-2.93774969 C19.9916417,4.3661035 14.6673785,10.6008903 11.4584461,15.7666107 C6.59003353,23.6037525 1.4266079,37.9080772 1.93368946,39.3903181 C2.44077102,40.8725589 16.8741721,43.3649177 26.6102306,44.5526544 C32.9905657,45.3310144 40.2271318,44.3194622 48.3199289,41.5179979 L48.319937,41.5180214 C48.530717,41.4450562 48.642438,41.2150353 48.5694728,41.0042553 C48.5650984,40.9916188 48.5600992,40.9792073 48.5544935,40.9670668 C45.1705405,33.6382295 42.2739977,28.0699721 39.8648652,24.2622946 C37.4431688,20.4347595 33.7513711,15.902252 28.789472,10.6647719 L28.789561,10.6646876 C28.6872514,10.5566958 28.5167685,10.5520895 28.4087768,10.654399 C28.4056482,10.6573629 28.4025913,10.6604015 28.3996086,10.6635121 C24.8250619,14.3913136 22.0421765,17.7566474 20.0509521,20.7595134 C18.0922477,23.7133378 15.7696522,27.8925414 13.0831656,33.2971242 L13.0831949,33.2971388 C12.9224264,33.6205675 13.0456065,34.0132337 13.3623081,34.1868792 C16.8142024,36.0795313 20.3932912,37.1569309 24.0995746,37.4190782 C29.9619177,37.8337246 35.4374044,36.3696554 35.6769441,35.7192495 C35.9164837,35.0688435 31.9417546,27.8953283 30.6983129,26.2538929 C30.3247846,25.7608077 29.6408596,24.8949178 28.6465379,23.6562229 L28.6464326,23.6563075 C28.5534001,23.5404105 28.3840293,23.5218752 28.2681323,23.6149077 C28.2563222,23.6243878 28.2453335,23.634848 28.2352833,23.6461768 C26.9261948,25.1218027 25.9961576,26.2965712 25.4451718,27.1704823 C24.9084658,28.0217443 24.4066047,29.0535567 23.9395884,30.2659195 L23.9394315,30.2658591 C23.8859487,30.404699 23.9551444,30.5606074 24.0939844,30.6140902 C24.1082884,30.6196003 24.1230366,30.6238795 24.1380684,30.6268812 C28.5115648,31.5002312 30.6983129,32.0199511 30.6983129,32.186041 C30.6983129,32.441023 26.1322916,32.506082 24.0995746,32.3599332 C22.0668575,32.2137843 21.9204343,31.1191811 21.9204343,30.7463199 C21.9204343,30.3734587 22.5083602,28.5161943 24.0995746,25.7144004 C25.690789,22.9126065 28.0654794,21.0828922 28.5951812,20.7595134 C29.1248829,20.4361347 33.890454,27.0796074 35.0449191,28.9613695 C38.1262786,33.9839424 38.5997355,36.3946279 38.4362638,36.6549698 C38.0685947,37.2405125 35.2139923,40.2980061 24.0995746,39.9866781 C16.9765845,39.7871548 9.28933854,36.6549698 8.97870919,34.947651 C8.66807984,33.2403323 13.8187499,22.858376 17.2704223,18.0765944 C19.5441777,14.9266425 23.2569002,10.7893323 28.4085896,5.66466378 L28.408551,5.66462505 C28.5122924,5.5614278 28.6794566,5.5599601 28.784994,5.66131987 C36.273959,12.8538399 41.2645384,18.6945866 43.7567322,23.18356 C47.5265175,29.9737487 52.6473758,41.9100626 52.1508898,42.9470394 C51.6544038,43.9840162 43.7567322,49.987507 27.9088652,48.5695102 C9.63354358,46.9343155 -2.17157821,43.9369468 -3.13436699,42.5767845 Z" fill="#FFFFFF" fill-rule="nonzero" mask="url(#mask-2)" transform="translate(28.294140, 24.108708) rotate(-2.000000) translate(-28.294140, -24.108708) "></path>
        </g>
    </g>
</svg>