<svg width="1080" height="974" viewBox="0 0 1080 974" fill="none" xmlns="http://www.w3.org/2000/svg">
<rect width="1080" height="974" fill="white"/>
<mask id="mask0" style="mask-type:alpha" maskUnits="userSpaceOnUse" x="3" y="0" width="1075" height="974">
<path d="M527.535 0.273072C480.935 9.78187 348.102 157.353 243.607 349.479C139.111 541.605 -14.1392 868.048 4.56309 903.001C23.2653 937.955 331.852 973.85 530.736 973.85C729.62 973.85 1036.54 898.548 1072.55 879.59C1108.55 860.632 947.705 485.84 889.303 393.449C787.056 231.697 574.134 -9.23573 527.535 0.273072Z" fill="white"/>
</mask>
<g mask="url(#mask0)">
<path d="M527.535 0.273072C480.935 9.78187 348.102 157.353 243.607 349.479C139.111 541.605 -14.1392 868.048 4.56309 903.001C23.2653 937.955 331.852 973.85 530.736 973.85C729.62 973.85 1036.54 898.548 1072.55 879.59C1108.55 860.632 947.705 485.84 889.303 393.449C787.056 231.697 574.134 -9.23573 527.535 0.273072Z" fill="#D4181D"/>
<path d="M-44.7771 840.991C-64.2493 815.423 47.7689 464.629 144.6 293.297C241.43 121.964 478.237 -138.059 508.292 -137.62C538.346 -137.182 804.062 32.5075 963.911 319.612C1070.48 511.015 1140.81 731.131 1174.92 979.959C1030.54 1011.01 920.469 1032.45 844.712 1044.29C528.954 1093.63 251.399 1040.87 155.719 1022.56C486.979 1047.65 711.99 1048.12 830.752 1023.97C979.106 993.81 1051.44 964.292 1122.7 942.42C1062.03 692.93 990.736 496.296 908.827 352.519C827.77 210.236 699.501 73.4964 524.02 -57.701V-57.701C520.858 -60.0648 516.428 -59.6894 513.709 -56.8271C375.235 88.9543 276.811 212.707 218.439 314.431C129.881 468.76 39.9886 747.936 50.7598 776.164C61.5309 804.391 341.397 842.714 529.849 859.054C653.348 869.761 792.144 845.394 946.239 785.952V785.952C950.252 784.404 952.251 779.895 950.703 775.882C950.61 775.641 950.505 775.406 950.389 775.175C880.234 636.197 820.658 530.824 771.662 459.057C722.41 386.915 648.203 302.039 549.041 204.431L549.041 204.431C546.998 202.42 543.71 202.446 541.699 204.489C541.64 204.549 541.583 204.609 541.528 204.671C475.141 278.927 423.769 345.663 387.412 404.88C351.648 463.13 309.695 545.243 261.554 651.219V651.219C258.672 657.561 261.311 665.047 267.532 668.181C335.338 702.336 405.046 720.693 476.658 723.251C589.927 727.297 694.476 695.394 698.655 682.696C702.834 669.999 621.397 534.413 596.326 503.612C588.795 494.36 575.031 478.132 555.034 454.928L555.034 454.928C553.162 452.756 549.883 452.512 547.711 454.384C547.49 454.575 547.285 454.784 547.099 455.01C522.861 484.332 505.726 507.6 495.695 524.814C485.923 541.584 476.944 561.81 468.758 585.492V585.492C467.822 588.203 469.259 591.159 471.97 592.096C472.249 592.192 472.536 592.265 472.827 592.313C557.71 606.202 600.207 614.747 600.319 617.948C600.491 622.863 512.529 627.19 473.252 625.741C433.976 624.293 430.417 603.294 430.166 596.107C429.915 588.921 439.996 552.728 468.78 497.656C497.563 442.583 542.101 405.719 552.093 399.13C562.085 392.54 658.407 517.379 681.925 552.871C744.696 647.602 755.444 693.747 752.468 698.874C745.776 710.408 692.814 771.259 478.386 772.739C340.963 773.688 190.691 718.492 183.555 685.794C176.419 653.097 268.705 449.528 332.014 355.041C373.718 292.799 442.493 210.557 538.337 108.317C540.267 106.258 543.487 106.118 545.589 108C694.772 241.588 794.892 350.803 845.947 435.646C923.176 563.982 1029.91 790.596 1021.04 810.917C1012.17 831.238 863.988 952.264 557.583 935.6C204.244 916.384 -25.3049 866.559 -44.7771 840.991Z" fill="white"/>
</g>
</svg>
