<svg width="16px" height="16px" viewBox="0 0 1080 974" fill="none" xmlns="http://www.w3.org/2000/svg">
<g clip-path="url(#clip0)">
<rect width="16px" height="16px" fill="white"/>
<mask id="mask0" style="mask-type:alpha" maskUnits="userSpaceOnUse" x="2" y="-1" width="1075" height="975">
<path d="M526.677 0.1568C480.077 9.6656 347.244 157.236 242.749 349.363C138.253 541.489 -14.9969 867.931 3.70531 902.885C22.4076 937.839 330.994 973.734 529.878 973.734C728.762 973.734 1035.68 898.432 1071.69 879.473C1107.69 860.515 946.847 485.724 888.445 393.333C786.198 231.581 573.276 -9.352 526.677 0.1568Z" fill="white"/>
</mask>
<g mask="url(#mask0)">
<path d="M526.677 0.1568C480.077 9.6656 347.244 157.236 242.749 349.363C138.253 541.489 -14.9969 867.931 3.70531 902.885C22.4076 937.839 330.994 973.734 529.878 973.734C728.762 973.734 1035.68 898.432 1071.69 879.473C1107.69 860.515 946.847 485.724 888.445 393.333C786.198 231.581 573.276 -9.352 526.677 0.1568Z" fill="#D4181D"/>
<path d="M-45.6349 840.875C-65.1071 815.307 46.9111 464.513 143.742 293.18C240.572 121.848 477.38 -138.175 507.434 -137.743C537.488 -137.298 803.204 32.3912 963.053 319.496C1069.62 510.899 1139.95 731.014 1174.06 979.843C1029.68 1010.89 919.611 1032.33 843.854 1044.17C528.096 1093.51 250.541 1040.75 154.861 1022.45C486.122 1047.54 711.132 1048.01 829.894 1023.86C978.248 993.694 1050.58 964.176 1121.84 942.304C1061.17 692.814 989.879 496.18 907.97 352.403C826.912 210.12 698.643 73.3802 523.162 -57.8173V-57.8173C520 -60.1811 515.57 -59.8056 512.851 -56.9434C374.377 88.8381 275.954 212.591 217.582 314.314C129.023 468.644 39.1308 747.82 49.902 776.048C60.6731 804.275 340.539 842.598 528.991 858.937C652.49 869.645 791.286 845.278 945.381 785.835V785.835C949.394 784.287 951.393 779.779 949.845 775.766C949.752 775.525 949.647 775.289 949.531 775.059C879.376 636.081 819.8 530.708 770.804 458.941C721.552 386.798 647.345 301.923 548.184 204.315V204.315C546.14 202.304 542.852 202.329 540.841 204.373C540.783 204.432 540.726 204.493 540.67 204.555C474.284 278.81 422.911 345.547 386.554 404.764C350.79 463.014 308.837 545.127 260.696 651.103C257.815 657.445 260.453 664.931 266.674 668.065C334.48 702.22 404.188 720.577 475.8 723.135C589.069 727.181 693.618 695.277 697.797 682.58C701.977 669.883 620.54 534.296 595.469 503.496C587.938 494.244 574.173 478.016 554.176 454.812L554.176 454.812C552.304 452.64 549.026 452.396 546.853 454.268C546.632 454.459 546.427 454.668 546.241 454.893C522.003 484.215 504.868 507.484 494.837 524.698C485.065 541.467 476.086 561.693 467.901 585.376V585.376C466.964 588.086 468.402 591.043 471.112 591.98C471.391 592.076 471.678 592.149 471.97 592.196C556.852 606.086 599.35 614.631 599.461 617.832C599.633 622.747 511.671 627.074 472.395 625.625C433.118 624.176 429.559 603.178 429.308 595.991C429.057 588.805 439.139 552.612 467.922 497.539C496.705 442.467 541.243 405.603 551.235 399.013C561.227 392.424 657.55 517.262 681.067 552.754C743.838 647.485 754.586 693.63 751.61 698.758C744.918 710.291 691.956 771.143 477.528 772.623C340.105 773.571 189.833 718.376 182.697 685.678C175.561 652.98 267.847 449.412 331.156 354.925C372.86 292.682 441.635 210.441 537.48 108.2C539.409 106.142 542.629 106.001 544.731 107.883C693.914 241.471 794.034 350.687 845.09 435.53C922.319 563.866 1038.3 790.597 1029.42 810.918C1020.55 831.239 863.13 952.148 556.725 935.484C203.386 916.268 -26.1627 866.442 -45.6349 840.875Z" fill="black"/>
</g>
</g>
<defs>
<clipPath id="clip0">
<rect width="16px" height="16px" fill="white"/>
</clipPath>
</defs>
</svg>
