<?xml version="1.0" encoding="UTF-8"?>
<svg width="64px" height="59px" viewBox="0 0 64 59" version="1.1" xmlns="http://www.w3.org/2000/svg" xmlns:xlink="http://www.w3.org/1999/xlink">
    <title>Adctv logo 2</title>
    <defs>
        <path d="M31.0911162,0.0795456452 C28.329657,0.643030153 20.4580761,9.38796743 14.265756,20.773229 C8.073436,32.1584906 -1.00807047,51.5032203 0.100211376,53.5745566 C1.20849322,55.6458929 19.4951178,57.7729999 31.280834,57.7729999 C43.0665502,57.7729999 61.2544977,53.310643 63.3880369,52.187198 C65.5215761,51.063753 55.9901039,28.8539113 52.5292331,23.3788817 C46.4701728,13.7935676 33.8525754,-0.483938862 31.0911162,0.0795456452 Z" id="path-1"></path>
    </defs>
    <g id="Adctv-logo-2" stroke="none" stroke-width="1" fill="none" fill-rule="evenodd">
        <g id="Path-4-Copy" transform="translate(0.000842, 0.048265)">
            <mask id="mask-2" fill="white">
                <use xlink:href="#path-1"></use>
            </mask>
            <use id="Mask" fill="#FFFFFF" xlink:href="#path-1"></use>
            <path d="M-3.5821337,48.6591823 C-4.68246374,47.104711 2.67709202,26.5612695 8.7660481,16.6146614 C14.8550042,6.66805316 29.4172279,-8.24158505 31.1962378,-8.15345726 C32.9752476,-8.06532948 48.3608106,2.53374257 57.2338108,19.8675623 C63.1491442,31.4234422 66.8594164,44.6048467 68.3646272,59.4117759 C59.7498035,60.9519169 53.1868502,61.9942014 48.6757675,62.5386293 C29.8735502,64.8078076 13.5449982,61.1090459 7.91636397,59.8271465 C27.4827622,61.9980035 40.8076493,62.4912021 47.8910252,61.3067422 C56.7393897,59.8271465 61.0844034,58.2285854 65.3495165,57.0806199 C62.2724375,42.1795536 58.4571173,30.3868462 53.9035559,21.7024977 C49.3973395,13.1084433 42.083624,4.74499439 31.9624094,-3.38784915 L31.9624091,-3.38784872 C31.7800528,-3.53438004 31.516906,-3.52130494 31.3499736,-3.35741835 C22.8475857,4.98983818 16.7627168,12.1153055 13.0953669,18.0189837 C7.53146689,26.9757172 1.63040903,43.3235168 2.20993082,45.0175064 C2.7894526,46.7114959 19.2847681,49.559906 30.4116921,50.9173193 C37.7035036,51.8068736 45.9738649,50.6508139 55.2227759,47.4491404 L55.2227852,47.4491673 C55.4636766,47.3657785 55.5913577,47.1028975 55.5079689,46.8620061 C55.5029696,46.8475643 55.4972562,46.8333798 55.4908497,46.8195049 C51.6234748,38.4436909 48.3131402,32.0799682 45.5598459,27.7283366 C42.7921929,23.3540109 38.5729955,18.1740022 32.9022537,12.1883107 L32.9023554,12.1882144 C32.7854302,12.0647952 32.5905926,12.0595308 32.4671734,12.176456 C32.463598,12.1798433 32.4601043,12.183316 32.4566955,12.186871 C28.3714994,16.4472156 25.1910588,20.2933113 22.9153738,23.7251582 C20.6768545,27.1009575 18.0224596,31.8771902 14.9521893,38.0538562 L14.9522228,38.0538729 C14.7684873,38.4235057 14.9092645,38.872267 15.2712092,39.070719 C19.2162313,41.23375 23.3066185,42.4650639 27.5423709,42.7646608 C34.2421916,43.2385424 40.4998908,41.5653205 40.7736504,40.8219994 C41.04741,40.0786783 36.5048624,31.8803752 35.0837862,30.0044491 C34.6568966,29.4409231 33.8752681,28.4513346 32.7389004,27.0356834 L32.7387801,27.03578 C32.6324572,26.9033263 32.4388906,26.882143 32.3064369,26.9884659 C32.2929397,26.9993003 32.2803812,27.0112549 32.2688952,27.0242021 C30.7727941,28.7106317 29.7098944,30.0532242 29.0801963,31.0519798 C28.4667857,32.024902 27.8932019,33.2041894 27.3594451,34.5898417 L27.3594798,34.5898551 C27.2984034,34.7484117 27.3774267,34.9264593 27.5359832,34.9875357 C27.5523178,34.9938278 27.5691596,34.9987144 27.5863252,35.0021422 C32.5846325,36.0002611 35.0837862,36.5942294 35.0837862,36.7840469 C35.0837862,37.0754549 29.8654761,37.149808 27.5423709,36.9827808 C25.2192657,36.8157535 25.0519249,35.5647784 25.0519249,35.1386513 C25.0519249,34.7125242 25.7238402,32.5899364 27.5423709,29.3878862 C29.3609017,26.185836 32.0748336,24.0947339 32.680207,23.7251582 C33.2855805,23.3555825 38.7319474,30.9481228 40.0513362,33.098708 C43.5728899,38.8387913 44.1139835,41.5938604 43.9271586,41.891394 C43.5069654,42.5605857 40.2445626,46.0548641 27.5423709,45.6990607 C19.4018109,45.471034 10.6163869,41.891394 10.2613819,39.9401726 C9.90637696,37.9889512 15.7928571,26.1238582 19.7376255,20.658965 C22.3362031,17.05902 26.5793145,12.3306655 32.4669595,6.47390146 L32.4669155,6.4738572 C32.585477,6.35591749 32.7765218,6.35424011 32.897136,6.47007985 C41.4559532,14.6901028 47.1594725,21.3652419 50.0076939,26.4954972 C54.31602,34.2557128 60.1684295,47.8972143 59.6010169,49.0823307 C59.0336044,50.2674471 50.0076939,57.1285794 31.8958459,55.5080116 C11.0097641,53.6392177 -2.48180366,50.2136535 -3.5821337,48.6591823 Z" fill="#D4181D" fill-rule="nonzero" mask="url(#mask-2)" transform="translate(32.336160, 27.552809) rotate(-2.000000) translate(-32.336160, -27.552809) "></path>
        </g>
    </g>
</svg>