<svg width="64" height="59" xmlns="http://www.w3.org/2000/svg" xmlns:xlink="http://www.w3.org/1999/xlink">
    <defs>
        <path d="M31.091.08C28.33.643 20.458 9.388 14.266 20.773 8.073 32.158-1.008 51.503.1 53.575c1.108 2.07 19.395 4.198 31.18 4.198 11.787 0 29.974-4.462 32.108-5.586 2.134-1.123-7.398-23.333-10.859-28.808C46.47 13.794 33.853-.484 31.091.079z" id="a"/>
    </defs>
    <g transform="translate(0 .048)" fill="none" fill-rule="evenodd">
        <mask id="b" fill="#fff">
            <use xlink:href="#a"/>
        </mask>
        <use fill="#FFF" xlink:href="#a"/>
        <path d="M-3.582 48.66c-1.1-1.555 6.26-22.099 12.348-32.045 6.089-9.947 20.651-24.857 22.43-24.768 1.78.088 17.165 10.687 26.038 28.02 5.915 11.556 9.625 24.738 11.13 39.545-8.614 1.54-15.177 2.582-19.688 3.127-18.802 2.269-35.131-1.43-40.76-2.712 19.567 2.171 32.892 2.664 39.975 1.48 8.848-1.48 13.193-3.078 17.459-4.226-3.078-14.901-6.893-26.694-11.446-35.379-4.507-8.594-11.82-16.957-21.942-25.09a.462.462 0 0 0-.612.03C22.848 4.99 16.763 12.116 13.095 18.02 7.531 26.976 1.63 43.324 2.21 45.018c.58 1.693 17.075 4.542 28.202 5.9 7.292.889 15.562-.267 24.81-3.469a.462.462 0 0 0 .269-.63c-3.868-8.375-7.178-14.739-9.931-19.09-2.768-4.375-6.987-9.555-12.658-15.54a.308.308 0 0 0-.445-.002c-4.086 4.26-7.266 8.106-9.542 11.538-2.238 3.376-4.893 8.152-7.963 14.329a.77.77 0 0 0 .32 1.017c3.944 2.163 8.035 3.394 12.27 3.694 6.7.474 12.958-1.2 13.232-1.943.273-.743-4.27-8.942-5.69-10.818a158.845 158.845 0 0 0-2.345-2.968.308.308 0 0 0-.47-.012c-1.496 1.687-2.56 3.03-3.189 4.028-.613.973-1.187 2.152-1.72 3.538a.308.308 0 0 0 .226.412c4.999.998 7.498 1.592 7.498 1.782 0 .291-5.219.366-7.542.199-2.323-.167-2.49-1.418-2.49-1.844 0-.426.672-2.55 2.49-5.751 1.819-3.202 4.533-5.293 5.138-5.663.606-.37 6.052 7.223 7.371 9.374 3.522 5.74 4.063 8.495 3.876 8.792-.42.67-3.682 4.164-16.385 3.808-8.14-.228-16.926-3.808-17.28-5.759-.356-1.951 5.53-13.816 9.476-19.281 2.598-3.6 6.841-8.328 12.729-14.185a.308.308 0 0 1 .43-.004c8.559 8.22 14.262 14.895 17.11 20.025 4.309 7.76 10.161 21.402 9.594 22.587-.567 1.185-9.593 8.047-27.705 6.426-20.886-1.869-34.378-5.294-35.478-6.849z" fill="#D4181D" fill-rule="nonzero" mask="url(#b)" transform="rotate(-2 32.336 27.553)"/>
    </g>
</svg>
