<svg width="16" height="16" viewBox="0 0 16 16" fill="none" xmlns="http://www.w3.org/2000/svg">
<mask id="mask0_11:25" style="mask-type:alpha" maskUnits="userSpaceOnUse" x="0" y="0" width="16" height="16">
<path d="M7.80891 0.704066C7.11517 0.845627 5.13764 3.04256 3.58199 5.9028C2.02633 8.76305 -0.255156 13.6229 0.0232703 14.1433C0.301697 14.6636 4.89572 15.198 7.85657 15.198C10.8174 15.198 15.3867 14.077 15.9227 13.7947C16.4586 13.5125 14.0641 7.93286 13.1947 6.5574C11.6725 4.14935 8.50265 0.562506 7.80891 0.704066Z" fill="white"/>
</mask>
<g mask="url(#mask0_11:25)">
<path d="M7.80891 0.704066C7.11517 0.845627 5.13764 3.04256 3.58199 5.9028C2.02633 8.76305 -0.255156 13.6229 0.0232703 14.1433C0.301697 14.6636 4.89572 15.198 7.85657 15.198C10.8174 15.198 15.3867 14.077 15.9227 13.7947C16.4586 13.5125 14.0641 7.93286 13.1947 6.5574C11.6725 4.14935 8.50265 0.562506 7.80891 0.704066Z" fill="white"/>
<path d="M-0.711287 13.2201C-1.00118 12.8395 0.666474 7.61708 2.10802 5.0664C3.54957 2.51571 7.07499 -1.35533 7.52242 -1.3488C7.96985 -1.34227 11.9256 1.18395 14.3054 5.45816C15.8918 8.30764 16.9389 11.5846 17.4467 15.2889C15.2973 15.7512 13.6586 16.0704 12.5308 16.2466C7.83003 16.9812 3.69798 16.1957 2.27356 15.9232C7.20514 16.2967 10.5549 16.3037 12.323 15.9442C14.5316 15.4952 15.6085 15.0557 16.6692 14.7301C15.766 11.0159 14.7047 8.08851 13.4853 5.94806C12.2786 3.82985 10.369 1.79416 7.75657 -0.159015L7.75657 -0.159015C7.7095 -0.194206 7.64355 -0.188616 7.60307 -0.146006C5.54156 2.02429 4.0763 3.86663 3.2073 5.38102C1.8889 7.67858 0.550647 11.8348 0.711 12.255C0.871353 12.6752 5.03781 13.2457 7.84335 13.489C9.68191 13.6484 11.7482 13.2856 14.0423 12.4007L14.0423 12.4007C14.102 12.3777 14.1318 12.3105 14.1087 12.2508C14.1073 12.2472 14.1058 12.2437 14.1041 12.2403C13.0596 10.1713 12.1727 8.60254 11.4433 7.53412C10.7101 6.46012 9.60533 5.19657 8.1291 3.74346L8.12912 3.74343C8.09869 3.71347 8.04972 3.71386 8.01976 3.74429C8.01889 3.74518 8.01805 3.74608 8.01722 3.747C7.0289 4.85246 6.26411 5.84599 5.72284 6.72758C5.19041 7.59477 4.56585 8.81721 3.84915 10.3949L3.84916 10.3949C3.80627 10.4893 3.84555 10.6008 3.93816 10.6474C4.9476 11.1559 5.98537 11.4292 7.05147 11.4673C8.73775 11.5275 10.2942 11.0525 10.3564 10.8635C10.4186 10.6745 9.20626 8.65596 8.83302 8.19743C8.7209 8.05969 8.51598 7.81809 8.21826 7.47262L8.21823 7.47265C8.19038 7.44032 8.14159 7.4367 8.10927 7.46456C8.10598 7.4674 8.10293 7.47051 8.10016 7.47386C7.73932 7.91039 7.48422 8.25679 7.33488 8.51307C7.1894 8.76272 7.05573 9.06384 6.93387 9.41641L6.93388 9.41642C6.91994 9.45676 6.94134 9.50077 6.98168 9.51471C6.98584 9.51615 6.99011 9.51723 6.99445 9.51794C8.25813 9.72472 8.8908 9.85193 8.89246 9.89959C8.89502 9.97275 7.58551 10.0372 7.00078 10.0156C6.41605 9.99404 6.36307 9.68142 6.35933 9.57443C6.3556 9.46745 6.50569 8.92864 6.93419 8.10875C7.3627 7.28887 8.02575 6.74006 8.1745 6.64196C8.32325 6.54387 9.75724 8.40238 10.1074 8.93076C11.0418 10.341 11.2018 11.028 11.1576 11.1044C11.0579 11.2761 10.2695 12.182 7.0772 12.204C5.03135 12.2181 2.7942 11.3964 2.68796 10.9096C2.58173 10.4228 3.95562 7.39227 4.89812 5.98561C5.51898 5.05898 6.54285 3.83463 7.96971 2.31255L7.9697 2.31254C7.99843 2.28189 8.04638 2.2798 8.07768 2.30782C10.2986 4.29659 11.7891 5.92251 12.5492 7.18559C13.6989 9.09618 15.2879 12.4698 15.1558 12.7724C15.0238 13.0749 12.8178 14.8767 8.25623 14.6286C2.99597 14.3425 -0.421398 13.6007 -0.711287 13.2201Z" fill="#D4181D"/>
</g>
</svg>
