<svg width="74" height="74" xmlns="http://www.w3.org/2000/svg">
    <g fill="none" fill-rule="evenodd">
        <circle fill="#0F1318" cx="37" cy="37" r="37"/>
        <g fill="#F3EFE7" fill-rule="nonzero">
            <path d="m40.901 15.702-2.32 5.63c-.587 1.257 1.363 2.066 1.838.761l2.325-5.632c.598-1.44-1.399-1.833-1.843-.76zM34.81 14.128c-.548.01-.988.464-.981 1.016l-.003 5.92a.998.998 0 1 0 1.99 0l.002-5.92a.996.996 0 0 0-1.007-1.016zM46.727 19.689l-4.168 4.188c-.94.943.474 2.349 1.414 1.408l4.168-4.19c1.033-1.037-.527-2.3-1.414-1.406z"/>
            <path d="M27.962 21.672c2.279 2.855 2.62 4.526 2.673 10.258a.586.586 0 0 0 .74.516l23.54-5.747c1.274-.312 2.6.498 2.908 1.596.283 1.02-.111 2.183-1.734 2.656l-20.104 5.805c-1.245.335-2.178 1.391-2.46 2.719a4.19 4.19 0 0 0 .988 3.68c.446.494.999.858 1.592 1.055a3.734 3.734 0 0 0-.849 1.709 4.192 4.192 0 0 0 .985 3.686c.43.478.957.822 1.525 1.026a3.19 3.19 0 0 0-.702 1.413c-.247 1.127.031 2.34.848 3.158.266.265.272.516-.212.646l-1.432.388c-3.529.953-6.88 1.623-9.703.324-3.012-1.383-5.211-4.716-6.193-8.493-.52-3.812-.084-7.78.999-10.943l2.38-6.953c.873-2.545.458-4.165-.646-7.097-1.454-3.87 3.492-3.11 4.857-1.402z"/>
            <path d="M47 36.356c.65.712 1.008 1.79.723 2.71-.325 1.064-.905 1.637-1.83 1.885L37.7 43.149c-.79.209-1.669-.063-2.311-.781a3.008 3.008 0 0 1-.713-2.65c.203-.943.825-1.613 1.613-1.83l8.346-2.293c.888-.245 1.847.196 2.364.76zM48.728 42.806c.65.713.924 1.764.725 2.706-.4 1.057-.935 1.616-1.856 1.895l-8.168 2.186c-.79.212-1.665-.057-2.312-.772a3.02 3.02 0 0 1-.708-2.66c.2-.942.821-1.606 1.608-1.822l8.407-2.31c.859-.239 1.814.24 2.304.777zM48.828 49.135c.594.586.8 1.547.635 2.364-.157.767-.614 1.355-1.221 1.518l-7.61 2.003c-.635.167-1.33-.04-1.85-.607a2.378 2.378 0 0 1-.573-2.123c.164-.75.67-1.283 1.302-1.452l7.752-2.126c.763-.21 1.13-.009 1.565.423z"/>
        </g>
    </g>
</svg>
