<svg width="74" height="74" xmlns="http://www.w3.org/2000/svg">
    <defs>
        <filter id="a">
            <feColorMatrix in="SourceGraphic" values="0 0 0 0 0.952941 0 0 0 0 0.937255 0 0 0 0 0.905882 0 0 0 1.000000 0"/>
        </filter>
    </defs>
    <g fill="none" fill-rule="evenodd">
        <circle fill="#0F1318" cx="37" cy="37" r="37"/>
        <g filter="url(#a)">
            <g fill="#000" fill-rule="nonzero">
                <path d="M26.958 44.276h-6.497a1.6 1.6 0 0 0-1.595 1.594v7.135a1.6 1.6 0 0 0 1.595 1.594h6.457a1.6 1.6 0 0 0 1.595-1.594V45.91a1.551 1.551 0 0 0-1.555-1.634zM41.029 40.13H34.57a1.6 1.6 0 0 0-1.594 1.594v11.28A1.6 1.6 0 0 0 34.57 54.6h6.458a1.6 1.6 0 0 0 1.594-1.594v-11.24c.04-.917-.717-1.635-1.594-1.635zM55.14 28.85h-6.498a1.6 1.6 0 0 0-1.594 1.594v22.6a1.6 1.6 0 0 0 1.594 1.595h6.457a1.6 1.6 0 0 0 1.595-1.594v-22.6c.04-.878-.678-1.595-1.555-1.595zM34.292 18.327c-4.743 0-8.61 3.866-8.61 8.61 0 1.634.479 3.108 1.276 4.424l-4.982 4.982a2.07 2.07 0 0 0 0 2.91 2.07 2.07 0 0 0 2.91 0l4.982-4.982c1.315.797 2.79 1.275 4.424 1.275 4.744 0 8.61-3.866 8.61-8.61 0-4.743-3.866-8.61-8.61-8.61zm0 13.074a4.457 4.457 0 0 1-4.464-4.465 4.457 4.457 0 0 1 4.464-4.464 4.457 4.457 0 0 1 4.465 4.464 4.457 4.457 0 0 1-4.465 4.465z"/>
            </g>
        </g>
    </g>
</svg>
