<svg width="74" height="74" xmlns="http://www.w3.org/2000/svg">
    <g fill="none" fill-rule="evenodd">
        <circle cx="37" cy="37" r="37" fill="#0F1318"/>
        <g transform="translate(15.5 19.8)" fill="#F3EFE7" fill-rule="nonzero">
            <circle cx="36.569" cy="12.843" r="1.653"/>
            <circle cx="36.569" cy="19.426" r="1.653"/>
            <rect x="32.181" y="30.66" width="2.926" height="5.851" rx="1.463"/>
            <rect x="8.777" y="30.66" width="2.926" height="5.851" rx="1.463"/>
            <path d="M39.495 32.225H4.388A4.388 4.388 0 0 1 0 27.836V4.476A4.388 4.388 0 0 1 4.388.088h35.107a4.388 4.388 0 0 1 4.388 4.388v23.317a4.39 4.39 0 0 1-4.388 4.432zM4.388 2.969c-.808 0-1.462.655-1.462 1.463v23.36c0 .808.654 1.463 1.462 1.463h35.107c.808 0 1.462-.655 1.462-1.462V4.476c0-.808-.654-1.463-1.462-1.463L4.388 2.97z"/>
            <path d="M28.656 27.105H8.455a3.072 3.072 0 0 1-3.057-3.057V8.718a3.57 3.57 0 0 1 3.569-3.554h19.689a3.072 3.072 0 0 1 3.057 3.057v15.812a3.072 3.072 0 0 1-3.057 3.072zM8.952 8.09a.644.644 0 0 0-.643.644v15.3c0 .073.058.132.131.132h20.216a.132.132 0 0 0 .131-.132V8.221a.132.132 0 0 0-.131-.132H8.952z"/>
            <path d="M7.592 7.27h22.307v17.641H7.592z"/>
        </g>
    </g>
</svg>
