<?xml version="1.0" encoding="UTF-8"?>
<svg width="74px" height="74px" viewBox="0 0 74 74" version="1.1" xmlns="http://www.w3.org/2000/svg" xmlns:xlink="http://www.w3.org/1999/xlink">
    <title>ic_easy to use</title>
    <g id="ic_easy-to-use" stroke="none" stroke-width="1" fill="none" fill-rule="evenodd">
        <g id="Group-4">
            <circle id="Oval" fill="#0F1318" cx="37" cy="37" r="37"></circle>
            <g id="1" transform="translate(20.000000, 14.000000)" fill="#F3EFE7" fill-rule="nonzero">
                <path d="M20.9013404,1.70162257 L18.5804586,7.33259259 C17.9940388,8.58920635 19.9443034,9.39813051 20.4194709,8.09326279 L22.7443739,2.46095238 C23.3415168,1.02070547 21.3450088,0.627971781 20.9013404,1.70162257 Z" id="Path"></path>
                <path d="M14.8106173,0.1279347 C14.2623986,0.138730159 13.8220811,0.592451499 13.8287831,1.14402116 L13.8261023,7.0631746 C13.7865608,7.64021164 14.2449735,8.12878307 14.8206702,8.12878307 C15.3963668,8.12878307 15.8534392,7.64021164 15.8152381,7.0631746 L15.8179189,1.14402116 C15.8293122,0.581058201 15.3722399,0.121305115 14.8106173,0.1279347 Z" id="Path"></path>
                <path d="M26.7273369,5.6886067 L22.5594004,9.87731922 C21.6197884,10.819612 23.0332275,12.225679 23.9728395,11.2847266 L28.140776,7.09467372 C29.1742152,6.0578836 27.6140035,4.79590829 26.7273369,5.6886067 Z" id="Path"></path>
                <path d="M7.96190476,7.67171076 C10.2405644,10.5267372 10.5823633,12.1982011 10.6346384,17.9303704 C10.6661376,18.2969665 11.0220106,18.5456085 11.3752028,18.4464198 L34.9157672,12.698836 C36.1891358,12.3871958 37.5154497,13.1974603 37.8230688,14.2945679 C38.1058907,15.3152734 37.7118166,16.47806 36.0886067,16.9505467 L15.9854674,22.7557672 C14.7395767,23.0908642 13.8073369,24.1470899 13.524515,25.4747443 C13.2457143,26.7903351 13.6123104,28.1555203 14.5130511,29.1541093 C14.9594004,29.6487125 15.5116402,30.0126279 16.1047619,30.2103351 C15.6925926,30.6788007 15.3923457,31.2638801 15.2562963,31.9186596 C14.9734744,33.2329101 15.3400705,34.6047972 16.2408113,35.6047266 C16.6704056,36.082575 17.1978483,36.4270547 17.7655026,36.6307937 C17.4277249,37.0235273 17.1790829,37.5053968 17.0638095,38.0442328 C16.8165079,39.1714991 17.0953086,40.3845503 17.9122751,41.2015168 C18.177672,41.4669136 18.1843739,41.7182363 17.7004938,41.848254 L16.2682892,42.2356261 C12.7390476,43.188642 9.3880776,43.858836 6.56455026,42.56 C3.55269841,41.1773898 1.35379189,37.8438448 0.371957672,34.0673016 C-0.147442681,30.2552381 0.288183422,26.2870194 1.37054674,23.1243739 L3.75174603,16.1711111 C4.62366843,13.6263845 4.20881834,12.0058554 3.10500882,9.07375661 C1.65068783,5.20405644 6.59671958,5.96472663 7.96190476,7.67171076 Z" id="Path"></path>
                <path d="M27.0001058,22.3556614 C27.6495238,23.0680776 28.0080776,24.1464198 27.722575,25.0652557 C27.3982011,26.1295238 26.8178131,26.7025397 25.8929453,26.9505115 L17.701164,29.149418 C16.9116755,29.3578483 16.032381,29.0864198 15.3896649,28.3679718 C14.7375661,27.6441623 14.4761905,26.6703704 14.6772487,25.7173545 C14.8803175,24.7750617 15.5015873,24.1048677 16.2897354,23.8883951 L24.6356614,21.5949912 C25.5236684,21.3503704 26.482716,21.791358 27.0001058,22.3556614 Z" id="Path"></path>
                <path d="M28.727866,28.8062787 C29.377284,29.5193651 29.6520635,30.5695591 29.4530159,31.5118519 C29.0522399,32.569418 28.5180952,33.1283598 27.5965785,33.4071605 L19.4289242,35.5933333 C18.6394356,35.8051146 17.7641623,35.5356966 17.117425,34.8212698 C16.4653263,34.0988007 16.2066314,33.1142857 16.40903,32.1612698 C16.6080776,31.2189771 17.2300176,30.555485 18.0174956,30.3390123 L26.423739,28.0288536 C27.2829277,27.7902646 28.2379541,28.2694533 28.727866,28.8062787 Z" id="Path"></path>
                <path d="M28.8283951,35.1349206 C29.4215168,35.7213404 29.6279365,36.6823986 29.4630688,37.4986949 C29.3062434,38.266067 28.8491711,38.8544974 28.2419753,39.0173545 C25.7039506,39.6835273 20.6325926,41.0198942 20.6325926,41.0198942 C19.9965785,41.1874427 19.3029277,40.9803527 18.7815168,40.4126984 C18.2554145,39.834321 18.0416226,39.0555556 18.2091711,38.2895238 C18.3726984,37.5409171 18.8793651,37.0067725 19.511358,36.8378836 L27.2628219,34.7120282 C28.0261728,34.5029277 28.392769,34.7033157 28.8283951,35.1349206 Z" id="Path"></path>
            </g>
        </g>
    </g>
</svg>