<?xml version="1.0" encoding="UTF-8"?>
<svg width="74px" height="74px" viewBox="0 0 74 74" version="1.1" xmlns="http://www.w3.org/2000/svg" xmlns:xlink="http://www.w3.org/1999/xlink">
    <title>ic_realtime reporting</title>
    <defs>
        <filter id="filter-1">
            <feColorMatrix in="SourceGraphic" type="matrix" values="0 0 0 0 0.952941 0 0 0 0 0.937255 0 0 0 0 0.905882 0 0 0 1.000000 0"></feColorMatrix>
        </filter>
    </defs>
    <g id="ic_realtime-reporting" stroke="none" stroke-width="1" fill="none" fill-rule="evenodd">
        <g id="Group-5">
            <circle id="Oval" fill="#0F1318" cx="37" cy="37" r="37"></circle>
            <g filter="url(#filter-1)" id="report">
                <g transform="translate(18.800000, 18.300000)">
                    <path d="M8.15804196,25.9755245 L1.66083916,25.9755245 C0.783916084,25.9755245 0.0664335664,26.693007 0.0664335664,27.5699301 L0.0664335664,34.7048951 C0.0664335664,35.5818182 0.783916084,36.2993007 1.66083916,36.2993007 L8.11818182,36.2993007 C8.9951049,36.2993007 9.71258741,35.5818182 9.71258741,34.7048951 L9.71258741,27.6097902 C9.75244755,26.693007 9.03496503,25.9755245 8.15804196,25.9755245 Z" id="Path" fill="#000000" fill-rule="nonzero"></path>
                    <path d="M22.2286713,21.8300699 L15.7713287,21.8300699 C14.8944056,21.8300699 14.1769231,22.5475524 14.1769231,23.4244755 L14.1769231,34.7048951 C14.1769231,35.5818182 14.8944056,36.2993007 15.7713287,36.2993007 L22.2286713,36.2993007 C23.1055944,36.2993007 23.8230769,35.5818182 23.8230769,34.7048951 L23.8230769,23.4643357 C23.8629371,22.5475524 23.1055944,21.8300699 22.2286713,21.8300699 Z" id="Path" fill="#000000" fill-rule="nonzero"></path>
                    <path d="M36.3391608,10.5496503 L29.841958,10.5496503 C28.965035,10.5496503 28.2475524,11.2671329 28.2475524,12.1440559 L28.2475524,34.7447552 C28.2475524,35.6216783 28.965035,36.3391608 29.841958,36.3391608 L36.2993007,36.3391608 C37.1762238,36.3391608 37.8937063,35.6216783 37.8937063,34.7447552 L37.8937063,12.1440559 C37.9335664,11.2671329 37.2160839,10.5496503 36.3391608,10.5496503 Z" id="Path" fill="#000000" fill-rule="nonzero"></path>
                    <path d="M15.4923077,0.0265734266 C10.748951,0.0265734266 6.88251748,3.89300699 6.88251748,8.63636364 C6.88251748,10.2706294 7.36083916,11.7454545 8.15804196,13.0608392 L3.17552448,18.0433566 C2.37832168,18.8405594 2.37832168,20.1559441 3.17552448,20.9531469 C3.97272727,21.7503497 5.28811189,21.7503497 6.08531469,20.9531469 L11.0678322,15.9706294 C12.3832168,16.7678322 13.858042,17.2461538 15.4923077,17.2461538 C20.2356643,17.2461538 24.1020979,13.3797203 24.1020979,8.63636364 C24.1020979,3.89300699 20.2356643,0.0265734266 15.4923077,0.0265734266 Z M15.4923077,13.1006993 C13.020979,13.1006993 11.027972,11.1076923 11.027972,8.63636364 C11.027972,6.16503497 13.020979,4.17202797 15.4923077,4.17202797 C17.9636364,4.17202797 19.9566434,6.16503497 19.9566434,8.63636364 C19.9566434,11.1076923 17.9636364,13.1006993 15.4923077,13.1006993 Z" id="Shape" fill="#000000" fill-rule="nonzero"></path>
                </g>
            </g>
        </g>
    </g>
</svg>