<?xml version="1.0" encoding="UTF-8"?>
<svg width="74px" height="74px" viewBox="0 0 74 74" version="1.1" xmlns="http://www.w3.org/2000/svg" xmlns:xlink="http://www.w3.org/1999/xlink">
    <title>ic_televison</title>
    <g id="ic_televison" stroke="none" stroke-width="1" fill="none" fill-rule="evenodd">
        <g id="Group-6">
            <g id="Group-4-Copy-2" fill="#0F1318">
                <circle id="Oval" cx="37" cy="37" r="37"></circle>
            </g>
            <g id="download" transform="translate(15.500000, 19.800000)" fill="#F3EFE7" fill-rule="nonzero">
                <circle id="Oval" cx="36.5691489" cy="12.8430851" r="1.65292553"></circle>
                <circle id="Oval" cx="36.5691489" cy="19.4255319" r="1.65292553"></circle>
                <rect id="Rectangle" x="32.1808511" y="30.6595745" width="2.92553191" height="5.85106383" rx="1.46276596"></rect>
                <rect id="Rectangle" x="8.77659574" y="30.6595745" width="2.92553191" height="5.85106383" rx="1.46276596"></rect>
                <path d="M39.4946809,32.224734 L4.38829787,32.224734 C1.96470788,32.224734 0,30.2600262 0,27.8364362 L0,4.47606383 C0,2.05247384 1.96470788,0.0877659574 4.38829787,0.0877659574 L39.4946809,0.0877659574 C41.9182708,0.0877659574 43.8831984,2.05247384 43.8831984,4.47606383 L43.8831984,27.7925532 C43.8946936,28.9639868 43.4375333,30.0914743 42.6132946,30.9239554 C41.789056,31.7564364 40.6661731,32.224734 39.4946809,32.224734 Z M4.38829787,2.96941489 C3.58043454,2.96941489 2.92553191,3.62431752 2.92553191,4.43218085 L2.92553191,27.7925532 C2.92553191,28.6004165 3.58043454,29.2553191 4.38829787,29.2553191 L39.4946809,29.2553191 C40.3025442,29.2553191 40.9574468,28.6004165 40.9574468,27.7925532 L40.9574468,4.47606383 C40.9574468,3.6682005 40.3025442,3.01329787 39.4946809,3.01329787 L4.38829787,2.96941489 Z" id="Shape"></path>
                <path d="M28.6555851,27.1050532 L8.45478723,27.1050532 C6.76967995,27.0970478 5.40561178,25.7329796 5.39760638,24.0478723 L5.39760638,8.71808511 C5.40566166,6.75261344 7.00126715,5.16356383 8.96675532,5.16356383 L28.6555851,5.16356383 C30.3406924,5.17156923 31.7047606,6.5356374 31.712766,8.22074468 L31.712766,24.0332447 C31.712766,25.7240616 30.3463829,27.0970017 28.6555851,27.1050532 L28.6555851,27.1050532 Z M8.95212766,8.08909574 C8.59666779,8.08909574 8.30851064,8.3772529 8.30851064,8.73271277 L8.30851064,24.0332447 C8.30851064,24.1059524 8.36745187,24.1648936 8.44015957,24.1648936 L28.6555851,24.1648936 C28.7282928,24.1648936 28.787234,24.1059524 28.787234,24.0332447 L28.787234,8.22074468 C28.787234,8.14803698 28.7282928,8.08909574 28.6555851,8.08909574 L8.95212766,8.08909574 Z" id="Shape"></path>
                <rect id="Rectangle" x="7.59175532" y="7.26994681" width="22.3071809" height="17.6409574"></rect>
            </g>
        </g>
    </g>
</svg>